<svg width="1200" height="628" viewBox="0 0 1200 628" fill="none" xmlns="http://www.w3.org/2000/svg">
  <rect width="1200" height="628" rx="44" fill="#0A1018"/>
  <rect x="18" y="18" width="1164" height="592" rx="30" stroke="url(#stroke)" stroke-width="2"/>
  <ellipse cx="956" cy="104" rx="282" ry="170" fill="#FF5E7A" fill-opacity="0.14"/>
  <ellipse cx="180" cy="522" rx="328" ry="224" fill="#F8C84A" fill-opacity="0.12"/>
  <g opacity="0.28">
    <path d="M86 514H1112" stroke="#FFFFFF" stroke-opacity="0.08" stroke-width="2"/>
    <path d="M86 446H1112" stroke="#FFFFFF" stroke-opacity="0.06" stroke-width="2"/>
    <path d="M86 378H1112" stroke="#FFFFFF" stroke-opacity="0.05" stroke-width="2"/>
    <path d="M86 310H1112" stroke="#FFFFFF" stroke-opacity="0.04" stroke-width="2"/>
  </g>
  <rect x="116" y="150" width="424" height="334" rx="38" fill="#10192D"/>
  <rect x="154" y="202" width="348" height="34" rx="17" fill="#263B61"/>
  <rect x="154" y="266" width="286" height="30" rx="15" fill="#263B61"/>
  <rect x="154" y="326" width="314" height="30" rx="15" fill="#263B61"/>
  <rect x="154" y="386" width="230" height="30" rx="15" fill="#263B61"/>
  <rect x="154" y="438" width="128" height="18" rx="9" fill="#F8C84A" fill-opacity="0.72"/>
  <g>
    <path d="M730 430V294" stroke="#4BD0F1" stroke-width="30" stroke-linecap="round"/>
    <path d="M818 430V226" stroke="#F8C84A" stroke-width="30" stroke-linecap="round"/>
    <path d="M906 430V170" stroke="#FF5E7A" stroke-width="30" stroke-linecap="round"/>
    <path d="M994 430V250" stroke="#9A61FF" stroke-width="30" stroke-linecap="round"/>
    <path d="M694 458H1034" stroke="#EAF0FF" stroke-opacity="0.24" stroke-width="10" stroke-linecap="round"/>
  </g>
  <text x="88" y="96" fill="#F7F8FF" font-family="Arial, sans-serif" font-size="34" font-weight="700" letter-spacing="0.18em">WANKUL TCG</text>
  <text x="588" y="492" fill="#F7F8FF" font-family="Arial, sans-serif" font-size="82" font-weight="900">Daily recap</text>
  <text x="588" y="560" fill="#F8C84A" font-family="Arial, sans-serif" font-size="74" font-weight="900">lecture rapide du rythme du marche</text>
  <defs>
    <linearGradient id="stroke" x1="42" y1="58" x2="1138" y2="566" gradientUnits="userSpaceOnUse">
      <stop stop-color="#4BD0F1"/>
      <stop offset="0.52" stop-color="#F8C84A"/>
      <stop offset="1" stop-color="#FF5E7A"/>
    </linearGradient>
  </defs>
</svg>
